<?xml version="1.0" encoding="UTF-8"?>
<svg version="1.1" xmlns="http://www.w3.org/2000/svg" width="32" height="32">
<path d="M0 0 C2.375 -0.1875 2.375 -0.1875 5 0 C5.66 0.99 6.32 1.98 7 3 C7.66 2.67 8.32 2.34 9 2 C9.66 2.33 10.32 2.66 11 3 C11.66 2.01 12.32 1.02 13 0 C15.475 0.495 15.475 0.495 18 1 C18 2.32 18 3.64 18 5 C18.66 5.66 19.32 6.32 20 7 C18.02 9.64 16.04 12.28 14 15 C17.63 15 21.26 15 25 15 C25 15.66 25 16.32 25 17 C14.44 17 3.88 17 -7 17 C-7 16.34 -7 15.68 -7 15 C-3.7 14.67 -0.4 14.34 3 14 C0.525 10.04 0.525 10.04 -2 6 C-1.34 6 -0.68 6 0 6 C-0.185625 5.38125 -0.37125 4.7625 -0.5625 4.125 C-1 2 -1 2 0 0 Z M8 4 C8 4.66 8 5.32 8 6 C8.66 5.67 9.32 5.34 10 5 C9.34 4.67 8.68 4.34 8 4 Z M6 11 C6 12.32 6 13.64 6 15 C6.66 14.67 7.32 14.34 8 14 C7.34 13.01 6.68 12.02 6 11 Z M11 11 C10.67 12.32 10.34 13.64 10 15 C10.66 15 11.32 15 12 15 C11.67 13.68 11.34 12.36 11 11 Z " fill="#62A48A" transform="translate(7,14)"/>
<path d="M0 0 C7.66387349 4.39270798 7.66387349 4.39270798 8.71484375 8.05078125 C8.69688003 10.32858134 8.50613465 12.37004509 8.0078125 14.58984375 C7.0178125 14.58984375 6.0278125 14.58984375 5.0078125 14.58984375 C4.9871875 13.51734375 4.9665625 12.44484375 4.9453125 11.33984375 C4.41699405 7.66035234 4.41699405 7.66035234 2.3828125 6.234375 C0.63947241 5.2607758 -1.174386 4.41611716 -2.9921875 3.58984375 C-2.8684375 4.73453125 -2.8684375 4.73453125 -2.7421875 5.90234375 C-2.9921875 8.58984375 -2.9921875 8.58984375 -4.6796875 10.52734375 C-6.9921875 11.58984375 -6.9921875 11.58984375 -9.6796875 10.83984375 C-11.9921875 9.58984375 -11.9921875 9.58984375 -12.9921875 8.58984375 C-13.03282582 6.9236726 -13.0349085 5.2559628 -12.9921875 3.58984375 C-16.71645911 5.26984293 -16.71645911 5.26984293 -19.9921875 7.58984375 C-21.0486984 11.2213186 -21.0486984 11.2213186 -20.9921875 14.58984375 C-21.9821875 14.58984375 -22.9721875 14.58984375 -23.9921875 14.58984375 C-24.07315553 13.13241912 -24.13136524 11.67371568 -24.1796875 10.21484375 C-24.21449219 9.40273437 -24.24929687 8.590625 -24.28515625 7.75390625 C-24.18847656 7.03976562 -24.09179688 6.325625 -23.9921875 5.58984375 C-23.0021875 4.92984375 -22.0121875 4.26984375 -20.9921875 3.58984375 C-20.26253384 1.02701633 -20.26253384 1.02701633 -19.9921875 -1.41015625 C-18.6721875 -1.41015625 -17.3521875 -1.41015625 -15.9921875 -1.41015625 C-15.9921875 -0.75015625 -15.9921875 -0.09015625 -15.9921875 0.58984375 C-14.9609375 -0.11140625 -13.9296875 -0.81265625 -12.8671875 -1.53515625 C-8.24341623 -4.67932072 -4.63359066 -2.1837157 0 0 Z " fill="#DE9A67" transform="translate(23.9921875,3.41015625)"/>
<path d="M0 0 C0.556875 0.226875 1.11375 0.45375 1.6875 0.6875 C-0.71067075 3.38742734 -3.24976935 4.78322578 -6.4375 6.4375 C-10.00200997 8.39025538 -10.00200997 8.39025538 -12.1875 11.6328125 C-12.51743238 13.75538643 -12.51743238 13.75538643 -12.3125 16.6875 C-13.3025 16.6875 -14.2925 16.6875 -15.3125 16.6875 C-15.39346803 15.23007537 -15.45167774 13.77137193 -15.5 12.3125 C-15.53480469 11.50039062 -15.56960938 10.68828125 -15.60546875 9.8515625 C-15.50878906 9.13742187 -15.41210938 8.42328125 -15.3125 7.6875 C-14.3225 7.0275 -13.3325 6.3675 -12.3125 5.6875 C-11.58284634 3.12467258 -11.58284634 3.12467258 -11.3125 0.6875 C-9.9925 0.6875 -8.6725 0.6875 -7.3125 0.6875 C-7.3125 1.3475 -7.3125 2.0075 -7.3125 2.6875 C-6.57 2.171875 -5.8275 1.65625 -5.0625 1.125 C-2.3125 -0.3125 -2.3125 -0.3125 0 0 Z " fill="#E19359" transform="translate(15.3125,1.3125)"/>
<path d="M0 0 C1.65 0.33 3.3 0.66 5 1 C5 2.32 5 3.64 5 5 C5.66 5.66 6.32 6.32 7 7 C6.04956626 8.33897583 5.08940853 9.67105427 4.125 11 C3.59132813 11.7425 3.05765625 12.485 2.5078125 13.25 C2.01023437 13.8275 1.51265625 14.405 1 15 C0.34 15 -0.32 15 -1 15 C-1.50512244 13.39743892 -2.00391627 11.79288208 -2.5 10.1875 C-2.7784375 9.29417969 -3.056875 8.40085937 -3.34375 7.48046875 C-4 5 -4 5 -4 2 C-3.34 2.33 -2.68 2.66 -2 3 C-1.34 2.01 -0.68 1.02 0 0 Z " fill="#E88E44" transform="translate(20,14)"/>
<path d="M0 0 C3.53571429 0.53571429 3.53571429 0.53571429 5 2 C5.3125 4.375 5.3125 4.375 5 7 C3.3125 8.9375 3.3125 8.9375 1 10 C-1.6875 9.375 -1.6875 9.375 -4 8 C-4.33 7.01 -4.66 6.02 -5 5 C-4.34 5 -3.68 5 -3 5 C-2.67 4.01 -2.34 3.02 -2 2 C-1.34 1.34 -0.68 0.68 0 0 Z " fill="#747D7A" transform="translate(16,5)"/>
<path d="M0 0 C1.65 0 3.3 0 5 0 C5 4.29 5 8.58 5 13 C0.82200357 10.91100178 0.07608099 9.94455388 -2 6 C-1.34 6 -0.68 6 0 6 C-0.2784375 5.071875 -0.2784375 5.071875 -0.5625 4.125 C-1 2 -1 2 0 0 Z " fill="#13A35F" transform="translate(7,14)"/>
<path d="M0 0 C2.96175123 0.61277612 4.38058783 1.25372522 7 3 C7.29296875 5.1640625 7.29296875 5.1640625 7.1875 7.625 C7.16042969 8.44226562 7.13335937 9.25953125 7.10546875 10.1015625 C7.07066406 10.72804688 7.03585938 11.35453125 7 12 C6.01 12 5.02 12 4 12 C3.896875 10.906875 3.79375 9.81375 3.6875 8.6875 C3.00272798 5.01463192 2.72080696 4.24762314 0 2 C0 1.34 0 0.68 0 0 Z " fill="#DF9358" transform="translate(25,6)"/>
<path d="M0 0 C0.33 0 0.66 0 1 0 C1 2.64 1 5.28 1 8 C1.99 8.33 2.98 8.66 4 9 C3.34 10.65 2.68 12.3 2 14 C1.34 14 0.68 14 0 14 C-0.50512244 12.39743892 -1.00391627 10.79288208 -1.5 9.1875 C-1.7784375 8.29417969 -2.056875 7.40085937 -2.34375 6.48046875 C-3 4 -3 4 -3 1 C-2.34 1.33 -1.68 1.66 -1 2 C-0.67 1.34 -0.34 0.68 0 0 Z " fill="#CA9975" transform="translate(19,15)"/>
<path d="M0 0 C1.32 0.33 2.64 0.66 4 1 C4.125 6.75 4.125 6.75 3 9 C2.01 8.67 1.02 8.34 0 8 C0 5.36 0 2.72 0 0 Z " fill="#4A4F7B" transform="translate(14,20)"/>
<path d="M0 0 C1.65 0 3.3 0 5 0 C3.68 0.33 2.36 0.66 1 1 C1.34444881 3.47266765 1.34444881 3.47266765 2 6 C2.66 6.33 3.32 6.66 4 7 C3.67 8.65 3.34 10.3 3 12 C1.35 10.35 -0.3 8.7 -2 7 C-1.34 6.67 -0.68 6.34 0 6 C-0.2784375 5.071875 -0.2784375 5.071875 -0.5625 4.125 C-1 2 -1 2 0 0 Z " fill="#44A77A" transform="translate(7,14)"/>
<path d="M0 0 C2.475 0.495 2.475 0.495 5 1 C5 2.32 5 3.64 5 5 C5.66 5.66 6.32 6.32 7 7 C5.68 7.99 4.36 8.98 3 10 C1.84058962 6.52176885 2.29179116 4.54104422 3 1 C2.01 0.67 1.02 0.34 0 0 Z " fill="#D59869" transform="translate(20,14)"/>
<path d="M0 0 C0.598125 0.20625 1.19625 0.4125 1.8125 0.625 C-0.23983685 2.8727975 -1.19417261 3.6272242 -4.1875 4.625 C-4.5175 3.635 -4.8475 2.645 -5.1875 1.625 C-2.1875 -0.375 -2.1875 -0.375 0 0 Z " fill="#DF9358" transform="translate(15.1875,1.375)"/>
<path d="M0 0 C0.66 0.33 1.32 0.66 2 1 C1.67 2.32 1.34 3.64 1 5 C-0.65 5.33 -2.3 5.66 -4 6 C-3.34 5.67 -2.68 5.34 -2 5 C-1.27840576 3.35636866 -0.60648579 1.68949614 0 0 Z " fill="#7BA39D" transform="translate(18,7)"/>
<path d="M0 0 C2.97 0.495 2.97 0.495 6 1 C5.0409375 1.433125 5.0409375 1.433125 4.0625 1.875 C1.84793921 2.82823451 1.84793921 2.82823451 1 5 C0.34 5 -0.32 5 -1 5 C-0.67 3.35 -0.34 1.7 0 0 Z " fill="#C9A289" transform="translate(12,5)"/>
</svg>
